<svg width="109" height="30" viewBox="0 0 109 30" fill="none" xmlns="http://www.w3.org/2000/svg">
<path fill-rule="evenodd" clip-rule="evenodd" d="M3.80263 0.25H104.697C105.906 0.25 106.881 0.978299 107.509 1.91227C108.141 2.85243 108.5 4.09438 108.5 5.41667V24.5833C108.5 25.9056 108.141 27.1476 107.509 28.0877C106.881 29.0217 105.906 29.75 104.697 29.75H3.80263C2.59449 29.75 1.61933 29.0217 0.991114 28.0877C0.35873 27.1476 0 25.9056 0 24.5833V5.41667C0 4.09438 0.358729 2.85243 0.991113 1.91227C1.61933 0.978299 2.59449 0.25 3.80263 0.25ZM3.80263 1.25C2.25478 1.25 1 3.11548 1 5.41667V24.5833C1 26.8845 2.25478 28.75 3.80263 28.75H104.697C106.245 28.75 107.5 26.8845 107.5 24.5833V5.41667C107.5 3.11548 106.245 1.25 104.697 1.25H3.80263Z" fill="#6F9DE2"/>
<path fill-rule="evenodd" clip-rule="evenodd" d="M15.4344 20.7712C15.7442 20.622 16.0494 20.4483 16.35 20.25L16.55 21.25H19.65V7.25H16.15V10.65H12.05C11.05 10.65 10.2633 10.9367 9.68998 11.51C9.12998 12.07 8.84998 12.85 8.84998 13.85V18.45C8.84998 19.3567 9.12331 20.0833 9.66998 20.63C10.2166 21.1767 10.9433 21.45 11.85 21.45H12.75C13.2033 21.45 13.7566 21.3567 14.41 21.17C14.7569 21.0659 15.0983 20.933 15.4344 20.7712ZM15.15 9.65H12.05C10.8504 9.65 9.78555 10.0002 8.98287 10.8029C8.18916 11.5966 7.84998 12.6581 7.84998 13.85V18.45C7.84998 19.5725 8.19641 20.5706 8.96287 21.3371C9.72933 22.1036 10.7275 22.45 11.85 22.45H12.75C13.3301 22.45 13.9818 22.3323 14.6847 22.1315L14.691 22.1297L14.6973 22.1278C15.0158 22.0323 15.3288 21.916 15.6361 21.7796L15.7302 22.25H20.65V19.8343C20.8281 20.3963 21.1272 20.9038 21.5605 21.3371C22.327 22.1036 23.3251 22.45 24.4476 22.45C26.5823 22.45 28.9508 22.3141 31.5507 22.0447L32.4476 21.9517V18.35H32.8476V15.0807L35.553 22.25H40.936L43.5445 15.3375C43.6959 16.0587 44.0258 16.704 44.559 17.2371C44.6372 17.3153 44.7178 17.3891 44.8007 17.4587C44.7738 17.4567 44.7468 17.4547 44.7198 17.4527L43.6461 17.3734V21.9563L44.548 22.0452C47.2825 22.3146 49.8488 22.45 52.2461 22.45C53.3686 22.45 54.3667 22.1036 55.1332 21.3371C55.8996 20.5706 56.2461 19.5725 56.2461 18.45V17.65C56.2461 16.5275 55.8996 15.5294 55.1332 14.7629C54.9344 14.5641 54.72 14.3936 54.4919 14.25H55.0476V14.35H56.2476V18.45C56.2476 19.5725 56.5941 20.5706 57.3605 21.3371C58.127 22.1036 59.1251 22.45 60.2476 22.45C61.5235 22.45 62.8244 22.3814 64.1502 22.2447L65.0476 22.1522V21.6608C65.7545 22.2018 66.6155 22.45 67.5656 22.45H68.2656C68.8457 22.45 69.4974 22.3323 70.2003 22.1315L70.2066 22.1297L70.213 22.1278C70.5315 22.0323 70.8444 21.916 71.1517 21.7796L71.2458 22.25H76.1656V19.7452C76.3409 20.1066 76.5753 20.4393 76.873 20.7371C76.8995 20.7636 76.9262 20.7895 76.9532 20.815L76.3601 20.7684V25.3517L77.2571 25.4447C79.857 25.7141 82.2255 25.85 84.3601 25.85C85.4826 25.85 86.4808 25.5036 87.2472 24.7371C88.0137 23.9706 88.3601 22.9725 88.3601 21.85V19.8193C88.5377 20.3874 88.8382 20.8999 89.2754 21.3371C90.0418 22.1036 91.04 22.45 92.1625 22.45C94.2971 22.45 96.6656 22.3141 99.2655 22.0447L100.162 21.9517V18.35H100.562V13.65C100.562 12.4557 100.215 11.3945 99.4097 10.6029C98.6181 9.79754 97.5569 9.45 96.3625 9.45H92.3625C91.1629 9.45 90.0981 9.80021 89.2954 10.6029C88.8432 11.055 88.5386 11.5941 88.3601 12.1946V9.65H79.9601C78.7606 9.65 77.6957 10.0002 76.893 10.8029C76.483 11.2129 76.1943 11.6943 76.011 12.2283C75.841 11.6013 75.5275 11.0376 75.0527 10.5629C74.2862 9.79643 73.2881 9.45 72.1656 9.45C70.1616 9.45 67.9245 9.58624 65.457 9.85592L64.5656 9.95333V14.4145L64.985 14.3882C64.8792 14.473 64.7769 14.5645 64.6785 14.6629C63.912 15.4294 63.5656 16.4275 63.5656 17.55V17.65H61.7476V14.35H64.2476V9.65H61.7476V7.25H56.8005L56.4005 9.65H47.4461C46.7532 9.65 46.1076 9.78201 45.5347 10.0633L45.6907 9.65H39.8142L38.2445 14.5637L36.6748 9.65H30.7983L30.9346 10.011C30.2711 9.62399 29.4927 9.45 28.6476 9.45H24.6476C23.4481 9.45 22.3832 9.80021 21.5805 10.6029C21.1323 11.0511 20.8291 11.5847 20.65 12.1789V6.25H15.15V9.65ZM30.9876 11.31C30.4276 10.7367 29.6476 10.45 28.6476 10.45H24.6476C23.6476 10.45 22.861 10.7367 22.2876 11.31C21.7276 11.87 21.4476 12.65 21.4476 13.65V18.45C21.4476 19.3567 21.721 20.0833 22.2676 20.63C22.8143 21.1767 23.541 21.45 24.4476 21.45C26.541 21.45 28.8743 21.3167 31.4476 21.05V18.55C31.1031 18.5771 30.7697 18.6023 30.4476 18.6257C28.389 18.7752 26.789 18.85 25.6476 18.85C25.4476 18.85 25.281 18.7833 25.1476 18.65C25.0615 18.5639 25.0032 18.4639 24.9727 18.35C24.956 18.2875 24.9476 18.2209 24.9476 18.15V17.35H31.8476V13.65C31.8476 12.65 31.561 11.87 30.9876 11.31ZM36.2445 21.25H40.2445L44.2445 10.65H40.5445L38.2445 17.85L35.9445 10.65H32.2445L36.2445 21.25ZM57.2476 10.65H56.0476V13.35H57.2476V18.45C57.2476 19.3567 57.521 20.0833 58.0676 20.63C58.6143 21.1767 59.341 21.45 60.2476 21.45C61.4876 21.45 62.7543 21.3833 64.0476 21.25V18.65H61.4476C61.2476 18.65 61.081 18.5833 60.9476 18.45C60.8143 18.3167 60.7476 18.15 60.7476 17.95V13.35H63.2476V10.65H60.7476V8.25H57.6476L57.2476 10.65ZM64.5656 18.45C64.5656 18.5177 64.5671 18.5843 64.5702 18.65C64.5984 19.2589 64.7576 19.7816 65.0476 20.218C65.1454 20.3651 65.2581 20.5025 65.3856 20.63C65.9323 21.1767 66.6589 21.45 67.5656 21.45H68.2656C68.7189 21.45 69.2723 21.3567 69.9256 21.17C70.2725 21.0659 70.614 20.933 70.95 20.7712C71.2598 20.622 71.565 20.4483 71.8656 20.25L72.0656 21.25H75.1656V13.45C75.1656 12.5433 74.8923 11.8167 74.3456 11.27C73.7989 10.7233 73.0723 10.45 72.1656 10.45C70.2056 10.45 68.0056 10.5833 65.5656 10.85V13.35C65.8574 13.3318 66.1907 13.3094 66.5656 13.2828C67.0131 13.2511 67.5197 13.2135 68.0856 13.17C69.1389 13.09 70.0989 13.05 70.9656 13.05C71.1656 13.05 71.3323 13.1167 71.4656 13.25C71.5517 13.3361 71.61 13.4361 71.6405 13.55C71.6572 13.6125 71.6656 13.6791 71.6656 13.75V14.55H67.5656C66.6589 14.55 65.9323 14.8233 65.3856 15.37C64.8389 15.9167 64.5656 16.6433 64.5656 17.55V18.45ZM98.7025 11.31C98.1425 10.7367 97.3625 10.45 96.3625 10.45H92.3625C91.3625 10.45 90.5758 10.7367 90.0025 11.31C89.4425 11.87 89.1625 12.65 89.1625 13.65V18.45C89.1625 19.3567 89.4358 20.0833 89.9825 20.63C90.5291 21.1767 91.2558 21.45 92.1625 21.45C94.2558 21.45 96.5891 21.3167 99.1625 21.05V18.55C98.8179 18.5771 98.4846 18.6023 98.1625 18.6257C96.1039 18.7752 94.5039 18.85 93.3625 18.85C93.1625 18.85 92.9958 18.7833 92.8625 18.65C92.7764 18.5639 92.7181 18.4639 92.6876 18.35C92.6708 18.2875 92.6625 18.2209 92.6625 18.15V17.35H99.5625V13.65C99.5625 12.65 99.2758 11.87 98.7025 11.31ZM82.8601 20.6348C81.9741 20.7783 81.174 20.85 80.4601 20.85H79.7601C78.8535 20.85 78.1268 20.5767 77.5801 20.03C77.0335 19.4833 76.7601 18.7567 76.7601 17.85V13.85C76.7601 12.85 77.0401 12.07 77.6001 11.51C78.1735 10.9367 78.9601 10.65 79.9601 10.65H87.3601V21.85C87.3601 22.7567 87.0868 23.4833 86.5401 24.03C85.9935 24.5767 85.2668 24.85 84.3601 24.85C82.2668 24.85 79.9335 24.7167 77.3601 24.45V21.85C77.7047 21.8771 78.038 21.9023 78.3601 21.9257C80.4187 22.0752 82.0187 22.15 83.1601 22.15C83.3601 22.15 83.5268 22.0833 83.6601 21.95C83.7889 21.8212 83.8555 21.6613 83.8599 21.4703C83.86 21.4636 83.8601 21.4568 83.8601 21.45V20.45C83.5154 20.5211 83.1821 20.5827 82.8601 20.6348ZM51.7461 17.35V18.05C51.7461 18.1601 51.7259 18.2601 51.6855 18.35C51.6525 18.4234 51.606 18.4901 51.5461 18.55C51.4127 18.6833 51.2461 18.75 51.0461 18.75C49.6835 18.75 47.8835 18.6737 45.6461 18.5211C45.3219 18.499 44.9886 18.4753 44.6461 18.45V21.05C47.3527 21.3167 49.8861 21.45 52.2461 21.45C53.1527 21.45 53.8794 21.1767 54.4261 20.63C54.9727 20.0833 55.2461 19.3567 55.2461 18.45V17.65C55.2461 16.7433 54.9727 16.0167 54.4261 15.47C53.8794 14.9233 53.1527 14.65 52.2461 14.65H48.6461C48.4461 14.65 48.2794 14.5833 48.1461 14.45C48.0127 14.3167 47.9461 14.15 47.9461 13.95C47.9461 13.75 48.0127 13.5833 48.1461 13.45C48.2794 13.3167 48.4461 13.25 48.6461 13.25H54.2461V10.65H47.4461C46.5394 10.65 45.8127 10.9233 45.2661 11.47C44.7194 12.0167 44.4461 12.7433 44.4461 13.65V14.35C44.4461 15.2567 44.7194 15.9833 45.2661 16.53C45.8127 17.0767 46.5394 17.35 47.4461 17.35H51.7461ZM15.15 17.3788V14.35H13.35V17.55H13.75C14.1585 17.55 14.624 17.4958 15.15 17.3788ZM13.15 13.35C12.6166 13.35 12.35 13.6167 12.35 14.15V17.85C12.35 18.05 12.4166 18.2167 12.55 18.35C12.6833 18.4833 12.85 18.55 13.05 18.55H13.75C14.4566 18.55 15.2566 18.4167 16.15 18.15V13.35H13.15ZM24.9476 14.85V13.75C24.9476 13.2167 25.2143 12.95 25.7476 12.95H27.5476C28.081 12.95 28.3476 13.2167 28.3476 13.75V14.85H24.9476ZM68.7656 17.05C68.5656 17.05 68.3989 17.1167 68.2656 17.25C68.1323 17.3833 68.0656 17.55 68.0656 17.75V17.95C68.0656 18.15 68.1323 18.3167 68.2656 18.45C68.3989 18.5833 68.5656 18.65 68.7656 18.65H69.2656C69.9723 18.65 70.7723 18.5167 71.6656 18.25V17.05H68.7656ZM82.8601 17.0798V14.35H81.2601V17.15H81.4601C81.9438 17.15 82.4103 17.1264 82.8601 17.0798ZM92.6625 14.85V13.75C92.6625 13.2167 92.9291 12.95 93.4625 12.95H95.2625C95.7958 12.95 96.0625 13.2167 96.0625 13.75V14.85H92.6625ZM81.4601 18.15C82.3001 18.15 83.1001 18.0833 83.8601 17.95V13.35H81.0601C80.5268 13.35 80.2601 13.6167 80.2601 14.15V17.45C80.2601 17.65 80.3268 17.8167 80.4601 17.95C80.5935 18.0833 80.7601 18.15 80.9601 18.15H81.4601Z" fill="#6F9DE2"/>
</svg>
